<svg width="11" height="14" viewBox="0 0 11 14" fill="none" xmlns="http://www.w3.org/2000/svg">
<path d="M5.33333 9.33333C5.52222 9.33333 5.68056 9.26944 5.80833 9.14167C5.93611 9.01389 6 8.85555 6 8.66667C6 8.47778 5.93611 8.31944 5.80833 8.19167C5.68056 8.06389 5.52222 8 5.33333 8C5.14444 8 4.98611 8.06389 4.85833 8.19167C4.73056 8.31944 4.66667 8.47778 4.66667 8.66667C4.66667 8.85555 4.73056 9.01389 4.85833 9.14167C4.98611 9.26944 5.14444 9.33333 5.33333 9.33333ZM4.66667 6.66667H6V3.33333H4.66667V6.66667ZM5.33333 13.3333C3.78889 12.9444 2.51389 12.0583 1.50833 10.675C0.502778 9.29167 0 7.75556 0 6.06667V2L5.33333 0L10.6667 2V6.06667C10.6667 7.75556 10.1639 9.29167 9.15833 10.675C8.15278 12.0583 6.87778 12.9444 5.33333 13.3333ZM5.33333 11.9333C6.48889 11.5667 7.44444 10.8333 8.2 9.73333C8.95556 8.63333 9.33333 7.41111 9.33333 6.06667V2.91667L5.33333 1.41667L1.33333 2.91667V6.06667C1.33333 7.41111 1.71111 8.63333 2.46667 9.73333C3.22222 10.8333 4.17778 11.5667 5.33333 11.9333Z" fill="#F94E4E"/>
</svg>
