<svg width="15" height="18" viewBox="0 0 15 18" fill="none" xmlns="http://www.w3.org/2000/svg">
<path d="M7.5 17.5C6.45833 17.5 5.48264 17.3021 4.57292 16.9062C3.66319 16.5104 2.87153 15.9757 2.19792 15.3021C1.52431 14.6285 0.989583 13.8368 0.59375 12.9271C0.197917 12.0174 0 11.0417 0 10H1.66667C1.66667 11.625 2.23264 13.0035 3.36458 14.1354C4.49653 15.2674 5.875 15.8333 7.5 15.8333C9.125 15.8333 10.5035 15.2674 11.6354 14.1354C12.7674 13.0035 13.3333 11.625 13.3333 10C13.3333 8.375 12.7674 6.99653 11.6354 5.86458C10.5035 4.73264 9.125 4.16667 7.5 4.16667H7.375L8.66667 5.45833L7.5 6.66667L4.16667 3.33333L7.5 0L8.66667 1.20833L7.375 2.5H7.5C8.54167 2.5 9.51736 2.69792 10.4271 3.09375C11.3368 3.48958 12.1285 4.02431 12.8021 4.69792C13.4757 5.37153 14.0104 6.16319 14.4062 7.07292C14.8021 7.98264 15 8.95833 15 10C15 11.0417 14.8021 12.0174 14.4062 12.9271C14.0104 13.8368 13.4757 14.6285 12.8021 15.3021C12.1285 15.9757 11.3368 16.5104 10.4271 16.9062C9.51736 17.3021 8.54167 17.5 7.5 17.5Z" fill="#E5E7EB"/>
</svg>
